<?xml version="1.0" encoding="UTF-8"?>
<svg version="1.1" xmlns="http://www.w3.org/2000/svg" width="416" height="414">
<path d="M0 0 C137.28 0 274.56 0 416 0 C416 136.62 416 273.24 416 414 C278.72 414 141.44 414 0 414 C0 277.38 0 140.76 0 0 Z " fill="#6A9154" transform="translate(0,0)"/>
<path d="M0 0 C0.8559375 -0.02900391 1.711875 -0.05800781 2.59375 -0.08789062 C11.33009363 -0.17393037 18.3747246 2.96506358 25.25 8.3125 C26.85999235 10.03298202 28.37420267 11.79670661 29.85546875 13.62890625 C31.21192373 15.33611305 31.21192373 15.33611305 32.80078125 16.77734375 C40.70546253 25.15076624 41.79016089 39.93666193 41.6875 50.75 C41.68137695 51.84803955 41.67525391 52.9460791 41.66894531 54.07739258 C41.37269335 69.39475831 36.37690312 78.33704545 25.6875 89.23828125 C23.38690811 91.19599647 22.19327006 91.95140437 19.25 92.3125 C19.25 92.9725 19.25 93.6325 19.25 94.3125 C11.85950026 97.00337902 5.27111399 97.75241727 -2.5625 97.625 C-4.0774707 97.62983398 -4.0774707 97.62983398 -5.62304688 97.63476562 C-10.55561056 97.59895163 -14.20414238 97.36073664 -18.75 95.3125 C-19.760625 94.85875 -20.77125 94.405 -21.8125 93.9375 C-24.70356522 92.33818732 -26.63405955 90.83535208 -28.75 88.3125 C-28.75 87.6525 -28.75 86.9925 -28.75 86.3125 C-29.9565625 85.94125 -29.9565625 85.94125 -31.1875 85.5625 C-33.75 84.3125 -33.75 84.3125 -34.5625 82.1875 C-34.624375 81.56875 -34.68625 80.95 -34.75 80.3125 C-35.41 80.3125 -36.07 80.3125 -36.75 80.3125 C-44.19225724 63.8712956 -46.89095406 45.41043589 -40.91796875 28.109375 C-39.31847978 24.2791606 -37.70158664 20.56859437 -35.1875 17.25 C-33.61626493 15.36778808 -33.61626493 15.36778808 -33.0625 12.9375 C-30.30120554 7.41491107 -24.7485576 4.44923379 -19.0625 2.5 C-17.63502608 2.06940915 -16.19663813 1.67351023 -14.75 1.3125 C-14.03714844 1.12945312 -13.32429688 0.94640625 -12.58984375 0.7578125 C-8.39432412 0.09991809 -4.24111825 0.04705383 0 0 Z " fill="#FAFCF8" transform="translate(224.75,144.6875)"/>
<path d="M0 0 C4.6222993 -0.12514556 9.24357772 -0.21505102 13.8671875 -0.2746582 C15.43441988 -0.29954765 17.00153935 -0.33347282 18.56835938 -0.37719727 C29.24362414 -0.66728598 39.05344709 -0.401397 47.91308594 6.48754883 C55.14617958 13.95098869 56.5968058 24.41895202 56.609375 34.35546875 C56.62591125 35.38311844 56.64244751 36.41076813 56.65948486 37.46955872 C56.70755219 40.70893575 56.72924381 43.94784486 56.75 47.1875 C56.77819418 49.40171573 56.80812636 51.61591006 56.83984375 53.83007812 C56.9132999 59.22001348 56.96312583 64.60969531 57 70 C63.93 70.495 63.93 70.495 71 71 C71 74 71 74 68.9765625 76.24609375 C67.99232301 77.1725792 66.99919137 78.0896598 66 79 C65.14100098 79.79881592 65.14100098 79.79881592 64.26464844 80.61376953 C62.98819243 81.79971807 61.70952009 82.9832844 60.42895508 84.16479492 C53.7300989 90.35405072 47.35093626 96.65869777 41.33203125 103.51171875 C39.0034865 105.99627989 36.85131282 108.13095762 34 110 C30.47918951 109.64818683 28.78686094 108.1525564 26.35546875 105.68359375 C25.33936523 104.65975586 25.33936523 104.65975586 24.30273438 103.61523438 C23.60470703 102.89658203 22.90667969 102.17792969 22.1875 101.4375 C21.50107422 100.74591797 20.81464844 100.05433594 20.10742188 99.34179688 C16.0873011 95.26082281 12.27405152 91.05008736 8.52954102 86.71655273 C6.77090877 84.74289858 4.90795388 83.00095751 2.875 81.3125 C-0.24133112 78.65694936 -3.23509342 76.02411657 -6 73 C-6 72.34 -6 71.68 -6 71 C0.27 70.67 6.54 70.34 13 70 C13.09898193 62.56188833 13.17152403 55.12416129 13.21972656 47.68554688 C13.23982405 45.15585653 13.26710668 42.62621254 13.30175781 40.09667969 C13.35035556 36.45756583 13.37298812 32.819067 13.390625 29.1796875 C13.41127014 28.05134491 13.43191528 26.92300232 13.45318604 25.76046753 C13.45498772 19.43542304 13.08512725 15.88781538 9 11 C9 10.34 9 9.68 9 9 C7.68 8.34 6.36 7.68 5 7 C5 6.34 5 5.68 5 5 C4.360625 4.731875 3.72125 4.46375 3.0625 4.1875 C1 3 1 3 0 0 Z " fill="#FBFCF9" transform="translate(311,178)"/>
<path d="M0 0 C6.53743241 0.09082324 11.7164446 0.99606067 17.43676758 4.32128906 C18.95270508 5.12566406 18.95270508 5.12566406 20.49926758 5.94628906 C25.67294774 10.12926451 32.26121763 15.84523341 34.43676758 22.32128906 C34.36645508 24.89550781 34.36645508 24.89550781 33.43676758 27.32128906 C31.25708008 28.90332031 31.25708008 28.90332031 28.56176758 30.13378906 C27.6774707 30.55273438 26.79317383 30.97167969 25.88208008 31.40332031 C23.43676758 32.32128906 23.43676758 32.32128906 20.43676758 32.32128906 C20.10676758 33.31128906 19.77676758 34.30128906 19.43676758 35.32128906 C16.46676758 35.81628906 16.46676758 35.81628906 13.43676758 36.32128906 C13.06165039 35.69480469 12.6865332 35.06832031 12.30004883 34.42285156 C11.78829102 33.60558594 11.2765332 32.78832031 10.74926758 31.94628906 C10.25040039 31.13417969 9.7515332 30.32207031 9.23754883 29.48535156 C7.11724583 26.93730848 5.59586218 26.23153666 2.43676758 25.32128906 C-3.52676041 24.84035939 -7.11837047 25.59885809 -12.56323242 28.32128906 C-13.89656576 28.98795573 -15.22989909 29.6546224 -16.56323242 30.32128906 C-16.63794584 34.7320625 -16.69209755 39.1424909 -16.72802734 43.55371094 C-16.7430213 45.05117213 -16.76342347 46.54859011 -16.78955078 48.04589844 C-17.46305985 60.82588421 -17.46305985 60.82588421 -12.09521484 71.94433594 C-8.40055965 75.26510969 -4.37348857 75.56013316 0.37426758 75.68457031 C4.43329762 74.96962752 6.89324602 72.9888639 9.45629883 69.84082031 C10.34381836 68.50083984 10.34381836 68.50083984 11.24926758 67.13378906 C11.85383789 66.23273438 12.4584082 65.33167969 13.08129883 64.40332031 C13.52860352 63.71625 13.9759082 63.02917969 14.43676758 62.32128906 C18.57807454 62.96055121 20.54506944 64.09719885 23.67895508 66.91113281 C26.95483996 69.53912047 30.72519924 71.3830256 34.43676758 73.32128906 C33.6219179 81.4343576 28.16655949 87.08288172 22.24926758 92.38378906 C19.49820487 94.27896559 17.73463078 95.03030113 14.43676758 95.32128906 C14.43676758 95.98128906 14.43676758 96.64128906 14.43676758 97.32128906 C1.31488961 100.67387821 -11.61603955 101.39327276 -23.89916992 95.12207031 C-26.83617903 93.13678996 -29.11541647 90.87661044 -31.56323242 88.32128906 C-32.86260742 87.36222656 -32.86260742 87.36222656 -34.18823242 86.38378906 C-39.37134241 81.88266723 -40.98807076 74.81184883 -42.56323242 68.32128906 C-42.56323242 67.33128906 -42.56323242 66.34128906 -42.56323242 65.32128906 C-43.22323242 65.32128906 -43.88323242 65.32128906 -44.56323242 65.32128906 C-44.62118054 61.0505125 -44.65681116 56.7798367 -44.68823242 52.50878906 C-44.70499023 51.29384766 -44.72174805 50.07890625 -44.73901367 48.82714844 C-44.74545898 47.66376953 -44.7519043 46.50039062 -44.75854492 45.30175781 C-44.76901855 44.22821045 -44.77949219 43.15466309 -44.7902832 42.04858398 C-44.56323242 39.32128906 -44.56323242 39.32128906 -42.56323242 36.32128906 C-42.19413627 34.70820218 -41.88649317 33.08038976 -41.62573242 31.44628906 C-40.89005908 27.45511635 -39.87974698 24.69953946 -37.56323242 21.32128906 C-37.27448242 20.47566406 -36.98573242 19.63003906 -36.68823242 18.75878906 C-35.2349971 15.61011254 -33.30111536 14.43692588 -30.56323242 12.32128906 C-29.70003776 11.16128614 -28.84658146 9.99400012 -28.00073242 8.82128906 C-24.52848949 4.56322273 -20.22758465 3.50554615 -15.07495117 2.04785156 C-9.91960066 0.55656821 -5.65418565 0.01892614 0 0 Z " fill="#F9FCF7" transform="translate(144.563232421875,143.6787109375)"/>
<path d="M0 0 C0.66 0 1.32 0 2 0 C2 135.3 2 270.6 2 410 C137.3 410 272.6 410 412 410 C412 274.7 412 139.4 412 0 C413.32 0 414.64 0 416 0 C416 136.62 416 273.24 416 414 C278.72 414 141.44 414 0 414 C0 277.38 0 140.76 0 0 Z " fill="#ECF0E9" transform="translate(0,0)"/>
<path d="M0 0 C9.89189783 -0.02255176 19.7837787 -0.04091552 29.67569637 -0.05181217 C34.2684264 -0.05704082 38.861138 -0.06413812 43.45385742 -0.07543945 C47.88233688 -0.086269 52.31079856 -0.09227698 56.73929024 -0.09487724 C58.43265628 -0.09673137 60.12602129 -0.10035175 61.81937981 -0.10573006 C64.18291232 -0.1129414 66.54637045 -0.1139909 68.90991211 -0.11352539 C69.61697296 -0.11712067 70.32403381 -0.12071594 71.05252075 -0.12442017 C75.88594784 -0.11405216 75.88594784 -0.11405216 77 1 C77 9.58 77 18.16 77 27 C51.59 27 26.18 27 0 27 C0 18.09 0 9.18 0 0 Z " fill="#F4F7F0" transform="translate(13,182)"/>
<path d="M0 0 C0.66 0.556875 1.32 1.11375 2 1.6875 C2.8971875 2.3990625 2.8971875 2.3990625 3.8125 3.125 C5 4.6875 5 4.6875 5 8.6875 C5.66 8.6875 6.32 8.6875 7 8.6875 C7.0744013 13.01078804 7.12871968 17.33373255 7.16479492 21.6574707 C7.17984066 23.12693782 7.20028238 24.59636034 7.22631836 26.06567383 C7.26288955 28.1832177 7.27976801 30.30016565 7.29296875 32.41796875 C7.3086792 33.69051514 7.32438965 34.96306152 7.34057617 36.27416992 C6.73308555 42.36257596 3.373814 45.65013323 -1 49.6875 C-4.98805688 51.68152844 -9.66484105 51.20095086 -14 50.6875 C-17.14398393 49.51670663 -19.70966605 48.1557797 -22 45.6875 C-24.5520216 39.25430294 -24.33088558 33.20340352 -24.3125 26.375 C-24.32861328 25.18970703 -24.34472656 24.00441406 -24.36132812 22.78320312 C-24.36568962 14.91943448 -24.07307797 7.52884746 -19 1.1875 C-13.84527356 -2.67854483 -5.72501875 -2.5046957 0 0 Z " fill="#6C9157" transform="translate(232,169.3125)"/>
<path d="M0 0 C7.44141153 -0.40952735 7.44141153 -0.40952735 11.41015625 2.52734375 C13.28515625 5.21484375 13.28515625 5.21484375 14.28515625 8.21484375 C15.27515625 8.21484375 16.26515625 8.21484375 17.28515625 8.21484375 C19.67072017 12.83687384 20.1476237 17.13926096 19.28515625 22.21484375 C16.47761336 29.8981195 12.54536837 35.95478386 6.28515625 41.21484375 C7.04441406 41.26382813 7.80367188 41.3128125 8.5859375 41.36328125 C9.57980469 41.43804687 10.57367188 41.5128125 11.59765625 41.58984375 C12.58378906 41.65945312 13.56992187 41.7290625 14.5859375 41.80078125 C17.28515625 42.21484375 17.28515625 42.21484375 20.28515625 44.21484375 C20.6484375 46.08984375 20.6484375 46.08984375 20.59765625 48.21484375 C20.59378906 48.91609375 20.58992188 49.61734375 20.5859375 50.33984375 C20.28515625 52.21484375 20.28515625 52.21484375 18.28515625 54.21484375 C15.21240234 54.44189453 15.21240234 54.44189453 11.30859375 54.41015625 C10.62334625 54.40732635 9.93809875 54.40449646 9.23208618 54.40158081 C7.04126598 54.39037656 4.85085309 54.36527234 2.66015625 54.33984375 C1.17578715 54.32981423 -0.30858835 54.32068833 -1.79296875 54.3125 C-5.43372636 54.29043669 -9.07424531 54.25590551 -12.71484375 54.21484375 C-12.71484375 53.55484375 -12.71484375 52.89484375 -12.71484375 52.21484375 C-13.37484375 52.21484375 -14.03484375 52.21484375 -14.71484375 52.21484375 C-15.4318066 48.18192772 -15.25168109 46.1478206 -13.1796875 42.546875 C-9.26062531 37.07226983 -5.03087268 31.42456396 0.28515625 27.21484375 C0.94515625 27.21484375 1.60515625 27.21484375 2.28515625 27.21484375 C4.03933037 22.71977256 4.56877733 19.03640205 4.28515625 14.21484375 C3.25590965 12.99310891 3.25590965 12.99310891 1.09765625 12.83984375 C-1.99196002 12.99331581 -1.99196002 12.99331581 -4.65234375 15.71484375 C-7.71484375 18.21484375 -7.71484375 18.21484375 -10.90234375 18.71484375 C-13.71484375 18.21484375 -13.71484375 18.21484375 -15.65234375 17.15234375 C-17.4554093 13.86440068 -16.71695504 11.75170711 -15.71484375 8.21484375 C-13.31964218 4.1614257 -11.10060135 1.62241951 -6.52734375 0.27734375 C-4.34989192 0.24164782 -2.17095707 0.17180236 0 0 Z " fill="#F3F8F0" transform="translate(287.71484375,185.78515625)"/>
<path d="M0 0 C1.38291967 2.76583935 1.059831 4.94851623 0.9921875 8.0390625 C0.97542969 9.25980469 0.95867187 10.48054687 0.94140625 11.73828125 C0.89753324 14.30614299 0.84559952 16.87388111 0.78515625 19.44140625 C0.50601982 30.29472602 0.50601982 30.29472602 5.46826172 39.63134766 C9.17070584 42.93958829 13.19016607 43.23885516 17.9375 43.36328125 C21.99653004 42.64833846 24.45647844 40.66757484 27.01953125 37.51953125 C27.61121094 36.62621094 28.20289063 35.73289063 28.8125 34.8125 C29.71935547 33.46091797 29.71935547 33.46091797 30.64453125 32.08203125 C31.09183594 31.39496094 31.53914063 30.70789063 32 30 C36.7734375 30.7421875 36.7734375 30.7421875 38.8125 33.0625 C39.4003125 34.0215625 39.4003125 34.0215625 40 35 C38.824375 34.835 37.64875 34.67 36.4375 34.5 C33.43065911 34.46806895 32.34221103 34.69962239 30.05078125 36.7109375 C28.87332674 38.12592622 27.73404139 39.57379831 26.640625 41.0546875 C24.30671423 43.82203885 22.29975428 44.80694496 18.73828125 45.3359375 C12.46348531 45.43698091 7.28362076 44.55835684 2 41 C0.30024248 39.07486026 -0.7595285 37.27419776 -2 35 C-2.33 35 -2.66 35 -3 35 C-3.07441989 30.81912848 -3.12872818 26.6386127 -3.16479492 22.45727539 C-3.1798376 21.03630859 -3.20027704 19.61538787 -3.22631836 18.19458008 C-3.26290347 16.14653114 -3.27977097 14.0990985 -3.29296875 12.05078125 C-3.3086792 10.82012939 -3.32438965 9.58947754 -3.34057617 8.3215332 C-2.97488056 4.7550179 -2.0734095 2.88172831 0 0 Z " fill="#D0DFC8" transform="translate(127,176)"/>
<path d="M0 0 C2.70832463 1.35416232 3.00092974 3.10498742 3.95532227 5.86254883 C8.4900535 20.33632643 10.14158262 38.50688812 4.15234375 52.80859375 C2.60341729 55.75417933 1.09169655 58.40341118 -1 61 C-1.33 61 -1.66 61 -2 61 C-2 59.35 -2 57.7 -2 56 C-1.01 55.505 -1.01 55.505 0 55 C4.24492475 44.10882446 4.56381835 33.51919959 4 22 C3.95617187 20.89785156 3.91234375 19.79570312 3.8671875 18.66015625 C3.51559173 13.08812766 2.36199434 9.0320749 0 4 C0 2.68 0 1.36 0 0 Z " fill="#CBDAC3" transform="translate(259,165)"/>
<path d="M0 0 C2.45020729 2.07459497 3.8588385 3.28040535 4.48774719 6.4863739 C4.48188095 7.41601456 4.47601471 8.34565521 4.4699707 9.3034668 C4.47435905 10.88982185 4.47435905 10.88982185 4.47883606 12.50822449 C4.46132797 13.64375259 4.44381989 14.7792807 4.42578125 15.94921875 C4.42249313 17.11757767 4.41920502 18.28593658 4.41581726 19.48970032 C4.40539828 21.95681332 4.38545172 24.4239018 4.35668945 26.89086914 C4.31254957 30.68324109 4.29524624 34.47498092 4.28320312 38.26757812 C4.26978236 40.66146754 4.25486031 43.05534912 4.23828125 45.44921875 C4.23089432 46.59081955 4.22350739 47.73242035 4.21589661 48.90861511 C4.20306137 49.95672867 4.19022614 51.00484222 4.17700195 52.0847168 C4.16715775 53.01197067 4.15731354 53.93922455 4.14717102 54.89457703 C4 57 4 57 3 58 C1.58429877 58.08651611 0.164405 58.10704904 -1.25390625 58.09765625 C-2.10791016 58.09443359 -2.96191406 58.09121094 -3.84179688 58.08789062 C-4.73962891 58.07951172 -5.63746094 58.07113281 -6.5625 58.0625 C-7.46419922 58.05798828 -8.36589844 58.05347656 -9.29492188 58.04882812 C-11.53001314 58.03700225 -13.76497437 58.0205222 -16 58 C-16.33 58.66 -16.66 59.32 -17 60 C-17 59.01 -17 58.02 -17 57 C-10.73 57 -4.46 57 2 57 C2.04966198 50.32886829 2.08584343 43.65784568 2.10986328 36.98657227 C2.11988328 34.71995162 2.13350297 32.45334377 2.15087891 30.18676758 C2.17530362 26.9174482 2.18652343 23.64830064 2.1953125 20.37890625 C2.21079636 18.87367149 2.21079636 18.87367149 2.22659302 17.33802795 C2.22755119 11.24681462 1.53783053 5.8985645 0 0 Z " fill="#819A74" transform="translate(321,191)"/>
<path d="M0 0 C0 5.01392926 -2.78055114 7.89749688 -6.1875 11.3125 C-7.115625 12.199375 -8.04375 13.08625 -9 14 C-8.24074219 14.04898438 -7.48148437 14.09796875 -6.69921875 14.1484375 C-5.70535156 14.22320312 -4.71148437 14.29796875 -3.6875 14.375 C-2.70136719 14.44460937 -1.71523438 14.51421875 -0.69921875 14.5859375 C2 15 2 15 5 17 C5.36328125 18.875 5.36328125 18.875 5.3125 21 C5.30863281 21.70125 5.30476563 22.4025 5.30078125 23.125 C5 25 5 25 3 27 C-0.07275391 27.22705078 -0.07275391 27.22705078 -3.9765625 27.1953125 C-4.66181 27.1924826 -5.3470575 27.18965271 -6.05307007 27.18673706 C-8.24389027 27.17553281 -10.43430316 27.15042859 -12.625 27.125 C-14.1093691 27.11497048 -15.5937446 27.10584458 -17.078125 27.09765625 C-20.71888261 27.07559294 -24.35940156 27.04106176 -28 27 C-28 26.67 -28 26.34 -28 26 C-27.09644775 25.97494385 -26.19289551 25.9498877 -25.26196289 25.92407227 C-21.9203572 25.82912683 -18.57893748 25.72988379 -15.23754883 25.62768555 C-13.7893576 25.5842837 -12.34111346 25.54261256 -10.89282227 25.50268555 C-8.81510441 25.44510938 -6.73765427 25.38137972 -4.66015625 25.31640625 C-3.40855713 25.27974854 -2.15695801 25.24309082 -0.86743164 25.20532227 C1.89630504 25.32196094 1.89630504 25.32196094 3 24 C3.04080783 22.00041636 3.04254356 19.99954746 3 18 C-0.16245541 16.9458482 -2.86948218 16.68724328 -6.1875 16.4375 C-7.27417969 16.35371094 -8.36085938 16.26992187 -9.48046875 16.18359375 C-10.31191406 16.12300781 -11.14335937 16.06242187 -12 16 C-12.33 14.68 -12.66 13.36 -13 12 C-12.01 11.67 -11.02 11.34 -10 11 C-9.7834375 10.1028125 -9.7834375 10.1028125 -9.5625 9.1875 C-8.54164106 5.21749302 -5.58842186 3.37445028 -2.25 1.25 C-1.5075 0.8375 -0.765 0.425 0 0 Z " fill="#C2D2BA" transform="translate(303,213)"/>
<path d="M0 0 C1.32 0.33 2.64 0.66 4 1 C4.179779 5.58436458 4.01348631 8.86705442 2 13 C1.6184375 13.89847656 1.236875 14.79695312 0.84375 15.72265625 C-1.45367688 19.80642988 -4.32548749 22.65504436 -7.6875 25.875 C-8.59725586 26.76445312 -8.59725586 26.76445312 -9.52539062 27.671875 C-11.01014785 29.12155922 -12.50414991 30.56176468 -14 32 C-14.66 31.67 -15.32 31.34 -16 31 C-12.32957405 25.07085039 -8.49318051 19.40303902 -3 15 C-2.34 15 -1.68 15 -1 15 C0.75645727 10.49907826 1.27843054 6.82612943 1 2 C0.67 1.34 0.34 0.68 0 0 Z " fill="#CAD8C1" transform="translate(291,198)"/>
<path d="M0 0 C1.5 1.25 1.5 1.25 3 3 C3 4.32 3 5.64 3 7 C3.66 7 4.32 7 5 7 C5.02898097 11.10415189 5.0467922 15.20827753 5.0625 19.3125 C5.07087891 20.47974609 5.07925781 21.64699219 5.08789062 22.84960938 C5.09111328 23.96787109 5.09433594 25.08613281 5.09765625 26.23828125 C5.10289307 27.26993408 5.10812988 28.30158691 5.11352539 29.36450195 C5 32 5 32 4 35 C3.34 35 2.68 35 2 35 C2 24.77 2 14.54 2 4 C1.34 4 0.68 4 0 4 C0 2.68 0 1.36 0 0 Z " fill="#CFDDC7" transform="translate(237,174)"/>
<path d="M0 0 C0.66 0.33 1.32 0.66 2 1 C-7.611645 13.71396269 -7.611645 13.71396269 -12.4375 16.3125 C-15.60165316 18.39621062 -17.20228767 20.86474643 -19.375 23.92578125 C-21.85510096 27.09148704 -24.84275435 29.53398564 -28 32 C-28.66 31.67 -29.32 31.34 -30 31 C-29.57589844 30.5875 -29.15179688 30.175 -28.71484375 29.75 C-25.64447131 26.72686406 -22.6979401 23.68471134 -19.9375 20.375 C-15.92499754 15.69067947 -11.36712803 11.60979784 -6.79858398 7.47998047 C-6.20891846 6.9438916 -5.61925293 6.40780273 -5.01171875 5.85546875 C-4.48022217 5.37746826 -3.94872559 4.89946777 -3.40112305 4.40698242 C-1.75954126 2.849554 -1.75954126 2.849554 0 0 Z " fill="#8AA07D" transform="translate(380,252)"/>
<path d="M0 0 C0.82048828 -0.01160156 1.64097656 -0.02320313 2.48632812 -0.03515625 C7.92076341 -0.00913342 11.71614629 0.9094257 16.5625 3.375 C16.5625 3.705 16.5625 4.035 16.5625 4.375 C15.82201416 4.36976318 15.08152832 4.36452637 14.31860352 4.35913086 C10.92074452 4.33817443 7.52289919 4.32528092 4.125 4.3125 C2.96033203 4.30412109 1.79566406 4.29574219 0.59570312 4.28710938 C-5.84076202 4.26897849 -12.05815875 4.50850124 -18.4375 5.375 C-12.04022364 1.11014909 -7.56296431 -0.10643734 0 0 Z " fill="#C5D6BD" transform="translate(142.4375,143.625)"/>
<path d="M0 0 C0.33 0 0.66 0 1 0 C1.0252689 6.81761894 1.04283244 13.63522589 1.05493164 20.45288086 C1.05997333 22.77417451 1.06680651 25.09546497 1.07543945 27.41674805 C1.08751225 30.74528795 1.09322979 34.07378602 1.09765625 37.40234375 C1.10281754 38.44712387 1.10797882 39.49190399 1.11329651 40.56834412 C1.11340981 42.00972496 1.11340981 42.00972496 1.11352539 43.48022461 C1.115746 44.33071884 1.11796661 45.18121307 1.12025452 46.05747986 C1 48 1 48 0 49 C-2.53049402 49.07313567 -5.03304837 49.09247527 -7.5625 49.0625 C-8.27341797 49.05798828 -8.98433594 49.05347656 -9.71679688 49.04882812 C-11.47790013 49.03700864 -13.23896036 49.01907263 -15 49 C-15 50.65 -15 52.3 -15 54 C-16.7074998 52.71937515 -18.37373596 51.38232443 -20 50 C-20 49.34 -20 48.68 -20 48 C-13.73 47.67 -7.46 47.34 -1 47 C-0.67 31.49 -0.34 15.98 0 0 Z " fill="#C0D2B9" transform="translate(325,201)"/>
<path d="M0 0 C1.98 0.99 1.98 0.99 4 2 C4 2.66 4 3.32 4 4 C4.886875 4.28875 5.77375 4.5775 6.6875 4.875 C10 6 10 6 12.30737305 7.05810547 C15.48787661 8.17066171 18.02892189 8.22721401 21.39453125 8.1953125 C22.59658203 8.18886719 23.79863281 8.18242187 25.03710938 8.17578125 C26.28298828 8.15902344 27.52886719 8.14226562 28.8125 8.125 C30.07771484 8.11597656 31.34292969 8.10695312 32.64648438 8.09765625 C35.76451564 8.07412394 38.88216097 8.04124545 42 8 C39.59256116 10.40743884 38.69996737 10.35274 35.38671875 10.66796875 C34.46826172 10.75626953 33.54980469 10.84457031 32.60351562 10.93554688 C31.64123047 11.01869141 30.67894531 11.10183594 29.6875 11.1875 C28.73681641 11.28224609 27.78613281 11.37699219 26.80664062 11.47460938 C22.25892149 11.89092748 18.47928352 12.05868519 14 11 C14 10.34 14 9.68 14 9 C12.948125 8.8453125 12.948125 8.8453125 11.875 8.6875 C7.21260657 7.57257983 3.91732126 6.31482714 1.125 2.3125 C0.75375 1.549375 0.3825 0.78625 0 0 Z " fill="#95AB88" transform="translate(196,233)"/>
<path d="M0 0 C0.66 0.33 1.32 0.66 2 1 C0.02 1.66 -1.96 2.32 -4 3 C-4 3.66 -4 4.32 -4 5 C-10.27460768 6.64147044 -16.14682255 7.33862168 -22.625 7.3125 C-23.83542969 7.33666992 -23.83542969 7.33666992 -25.0703125 7.36132812 C-30.46609743 7.36570782 -34.18508389 6.44618392 -39 4 C-35.25 2.875 -35.25 2.875 -33 4 C-29.9852603 4.23952065 -26.96070327 4.18520448 -23.9375 4.1875 C-23.11572266 4.19974609 -22.29394531 4.21199219 -21.44726562 4.22460938 C-14.65583792 4.2406395 -8.38279302 3.36751207 -2.0625 0.8125 C-1.381875 0.544375 -0.70125 0.27625 0 0 Z " fill="#C6D7BC" transform="translate(163,236)"/>
<path d="M0 0 C4.7734375 0.7421875 4.7734375 0.7421875 6.8125 3.0625 C7.4003125 4.0215625 7.4003125 4.0215625 8 5 C6.824375 4.835 5.64875 4.67 4.4375 4.5 C1.43065911 4.46806895 0.34221103 4.69962239 -1.94921875 6.7109375 C-3.12667326 8.12592622 -4.26595861 9.57379831 -5.359375 11.0546875 C-7.73398443 13.87029583 -9.72996965 14.83862651 -13.3671875 15.30078125 C-19.63664067 15.33007776 -24.04096128 14.66313485 -28.875 10.3125 C-29.24625 9.879375 -29.6175 9.44625 -30 9 C-29.67 8.34 -29.34 7.68 -29 7 C-28.1646875 7.928125 -28.1646875 7.928125 -27.3125 8.875 C-23.1952404 12.65842774 -19.4594689 13.22182844 -14.0625 13.36328125 C-10.00346996 12.64833846 -7.54352156 10.66757484 -4.98046875 7.51953125 C-4.09294922 6.17955078 -4.09294922 6.17955078 -3.1875 4.8125 C-2.58292969 3.91144531 -1.97835937 3.01039063 -1.35546875 2.08203125 C-0.68451172 1.05142578 -0.68451172 1.05142578 0 0 Z " fill="#B3C5A8" transform="translate(159,206)"/>
<path d="M0 0 C0.33 0 0.66 0 1 0 C0.99476318 0.77714355 0.98952637 1.55428711 0.98413086 2.35498047 C0.96339844 5.86164549 0.95035179 9.36829763 0.9375 12.875 C0.92912109 14.09832031 0.92074219 15.32164062 0.91210938 16.58203125 C0.90888672 17.74863281 0.90566406 18.91523438 0.90234375 20.1171875 C0.89710693 21.19597168 0.89187012 22.27475586 0.88647461 23.38623047 C0.82116894 25.98232186 0.82116894 25.98232186 2 28 C2.04022391 30.3329866 2.04320247 32.66706666 2 35 C0 32 0 32 0 29 C-0.66 29 -1.32 29 -2 29 C-2.05794812 24.72922344 -2.09357874 20.45854764 -2.125 16.1875 C-2.14175781 14.97255859 -2.15851563 13.75761719 -2.17578125 12.50585938 C-2.18222656 11.34248047 -2.18867187 10.17910156 -2.1953125 8.98046875 C-2.20578613 7.90692139 -2.21625977 6.83337402 -2.22705078 5.72729492 C-2 3 -2 3 0 0 Z " fill="#C5D5BD" transform="translate(102,180)"/>
<path d="M0 0 C4.78717542 -0.04943465 9.57420227 -0.08573582 14.36157227 -0.10986328 C15.99017932 -0.11992142 17.61876832 -0.13356958 19.24731445 -0.15087891 C21.58809872 -0.17513574 23.92864424 -0.18648483 26.26953125 -0.1953125 C27.36186821 -0.21079636 27.36186821 -0.21079636 28.47627258 -0.22659302 C32.21275069 -0.22742249 33.80675056 -0.12883296 37 2 C27.43 2 17.86 2 8 2 C7.67 3.32 7.34 4.64 7 6 C7.99 6.66 8.98 7.32 10 8 C9.67 8.99 9.34 9.98 9 11 C9 10.34 9 9.68 9 9 C7.68 8.34 6.36 7.68 5 7 C5 6.34 5 5.68 5 5 C4.360625 4.731875 3.72125 4.46375 3.0625 4.1875 C1 3 1 3 0 0 Z " fill="#CADCC1" transform="translate(311,178)"/>
<path d="M0 0 C7.74859319 -0.29567 7.74859319 -0.29567 9.87207031 1.65722656 C10.53867676 2.3895752 10.53867676 2.3895752 11.21875 3.13671875 C9.39150391 3.03230469 9.39150391 3.03230469 7.52734375 2.92578125 C-2.46029789 2.10396777 -2.46029789 2.10396777 -11.40625 5.63671875 C-13.65716793 8.1727934 -14.1529551 10.15019737 -14.21875 13.51171875 C-14.074375 14.70796875 -13.93 15.90421875 -13.78125 17.13671875 C-14.44125 17.13671875 -15.10125 17.13671875 -15.78125 17.13671875 C-17.00821302 13.29223461 -17.4080629 11.36087059 -15.53515625 7.703125 C-12.8504594 3.96607482 -10.97089195 1.52564016 -6.53125 0.07421875 C-4.35432843 0.11050078 -2.17459809 0.10689738 0 0 Z " fill="#A3BA98" transform="translate(287.78125,185.86328125)"/>
<path d="M0 0 C-5.76316434 6.88377963 -11.89013472 13.42546859 -18 20 C-18 17 -18 17 -16.125 15.0625 C-15.42375 14.381875 -14.7225 13.70125 -14 13 C-12.76487921 10.86690808 -12.76487921 10.86690808 -12 9 C-11.34 9 -10.68 9 -10 9 C-9.9175 8.2575 -9.835 7.515 -9.75 6.75 C-8.28661926 1.38427064 -5.48523768 -0.60947085 0 0 Z " fill="#DFEDDA" transform="translate(370,262)"/>
<path d="M0 0 C0.75603516 -0.04576172 1.51207031 -0.09152344 2.29101562 -0.13867188 C5.65220682 -0.20572079 7.91845643 -0.20928934 10.70166016 1.80419922 C12.36328125 3.46484375 12.36328125 3.46484375 14.8125 6.4375 C14.4825 7.0975 14.1525 7.7575 13.8125 8.4375 C12.9153125 7.4784375 12.9153125 7.4784375 12 6.5 C7.99267653 2.72166644 3.70764927 3.17250562 -1.51953125 3.20703125 C-4.74933832 3.48603362 -6.6727442 4.40947113 -9.1875 6.4375 C-10.1775 6.9325 -10.1775 6.9325 -11.1875 7.4375 C-8.82192479 0.02536435 -7.53981533 0.18175781 0 0 Z " fill="#CDDBC6" transform="translate(222.1875,165.5625)"/>
<path d="M0 0 C0.33 0.66 0.66 1.32 1 2 C0.69449219 2.91523438 0.38898438 3.83046875 0.07421875 4.7734375 C-1.7100249 10.56885294 -1.2484146 16.62330856 -1.1875 22.625 C-1.18685547 23.83929688 -1.18621094 25.05359375 -1.18554688 26.3046875 C-1.1507268 33.70806892 -1.1507268 33.70806892 0 41 C-0.99 40.34 -1.98 39.68 -3 39 C-3.30453082 36.35115641 -3.42011164 33.93988482 -3.3984375 31.2890625 C-3.40130768 30.52451752 -3.40417786 29.75997253 -3.40713501 28.97225952 C-3.4091781 27.35324362 -3.40363108 25.73420317 -3.39111328 24.11523438 C-3.37510587 21.64136154 -3.39092966 19.16913334 -3.41015625 16.6953125 C-3.408173 15.12239223 -3.40432762 13.54947299 -3.3984375 11.9765625 C-3.40451019 11.23789948 -3.41058289 10.49923645 -3.4168396 9.7381897 C-3.35976826 5.54997978 -2.98425255 3.03759569 0 0 Z " fill="#B5C7AA" transform="translate(210,173)"/>
<path d="M0 0 C0.33 0 0.66 0 1 0 C1.02578125 1.07894531 1.0515625 2.15789062 1.078125 3.26953125 C1.47641442 14.86824154 3.31194999 25.72269253 6 37 C0.80364174 32.14438655 0.52629035 25.75275036 0 19 C-0.10573158 15.64400125 -0.09635841 12.29469186 -0.0625 8.9375 C-0.05798828 8.07189453 -0.05347656 7.20628906 -0.04882812 6.31445312 C-0.03719913 4.20960461 -0.01927073 2.10479242 0 0 Z " fill="#8AA37F" transform="translate(180,183)"/>
<path d="M0 0 C0.8559375 -0.02900391 1.711875 -0.05800781 2.59375 -0.08789062 C8.89925987 -0.14999034 13.7890954 1.10529033 19.25 4.3125 C19.91 4.9725 20.57 5.6325 21.25 6.3125 C18.46776849 5.67176012 15.91035264 4.79742128 13.25390625 3.76171875 C7.57238261 1.84614048 2.1261115 1.97887644 -3.8125 2.125 C-4.86888672 2.13853516 -5.92527344 2.15207031 -7.01367188 2.16601562 C-9.59299809 2.2010291 -12.17121494 2.25013325 -14.75 2.3125 C-14.75 1.9825 -14.75 1.6525 -14.75 1.3125 C-9.86135914 0.07013879 -5.0123029 0.05560987 0 0 Z " fill="#CEDFC6" transform="translate(224.75,144.6875)"/>
<path d="M0 0 C2.475 0.99 2.475 0.99 5 2 C4.5384165 6.99682453 3.17221576 9.5754926 -0.0625 13.375 C-0.79597656 14.24898437 -1.52945313 15.12296875 -2.28515625 16.0234375 C-2.85105469 16.67570312 -3.41695312 17.32796875 -4 18 C-4.33 16.68 -4.66 15.36 -5 14 C-4.34 14 -3.68 14 -3 14 C-2.896875 13.360625 -2.79375 12.72125 -2.6875 12.0625 C-2.460625 11.381875 -2.23375 10.70125 -2 10 C-1.01 9.67 -0.02 9.34 1 9 C1.80967438 6.08517222 2.21845993 4.53886783 1.0625 1.6875 C0.711875 1.130625 0.36125 0.57375 0 0 Z " fill="#D4E5CD" transform="translate(174,215)"/>
<path d="M0 0 C5.73370732 0.6745538 9.4686939 3.42942964 13.4375 7.5 C15 10 15 10 14.75 12.3125 C14.5025 12.869375 14.255 13.42625 14 14 C13.4225 13.2575 12.845 12.515 12.25 11.75 C8.65227823 7.24910177 8.65227823 7.24910177 4 4 C4 3.34 4 2.68 4 2 C2.68 2 1.36 2 0 2 C0 1.34 0 0.68 0 0 Z " fill="#C3D3B8" transform="translate(348,180)"/>
<path d="M0 0 C4.95 0.33 9.9 0.66 15 1 C15 4 15 4 12.8125 6.375 C11.884375 7.24125 10.95625 8.1075 10 9 C9.071875 9.928125 8.14375 10.85625 7.1875 11.8125 C6.465625 12.534375 5.74375 13.25625 5 14 C4.34 13.67 3.68 13.34 3 13 C3.5053125 12.52949219 4.010625 12.05898438 4.53125 11.57421875 C5.1809375 10.95160156 5.830625 10.32898438 6.5 9.6875 C7.47453125 8.76517578 7.47453125 8.76517578 8.46875 7.82421875 C10.3214614 6.01398471 10.3214614 6.01398471 10 3 C6.7 2.67 3.4 2.34 0 2 C0 1.34 0 0.68 0 0 Z " fill="#CCDEC3" transform="translate(367,248)"/>
<path d="M0 0 C0.33 0.99 0.66 1.98 1 3 C0 4 0 4 -3.37890625 4.09765625 C-4.77347077 4.09098369 -6.16801743 4.07902532 -7.5625 4.0625 C-8.27341797 4.05798828 -8.98433594 4.05347656 -9.71679688 4.04882812 C-11.47790013 4.03700864 -13.23896036 4.01907263 -15 4 C-15 5.65 -15 7.3 -15 9 C-16.7074998 7.71937515 -18.37373596 6.38232443 -20 5 C-20 4.34 -20 3.68 -20 3 C-13.73 2.67 -7.46 2.34 -1 2 C-0.67 1.34 -0.34 0.68 0 0 Z " fill="#D0E2C9" transform="translate(325,246)"/>
<path d="M0 0 C-1.0730872 2.59329406 -1.76301998 3.83968999 -4.125 5.4375 C-6.30790702 6.8829521 -6.30790702 6.8829521 -6.25 9.6875 C-6.1675 10.450625 -6.085 11.21375 -6 12 C-3.525 12.99 -3.525 12.99 -1 14 C-1 14.33 -1 14.66 -1 15 C-2.98 15 -4.96 15 -7 15 C-8.59525427 11.80949146 -8.41125236 9.52502026 -8 6 C-5.98837694 3.15896927 -3.66330547 0 0 0 Z " fill="#DDEBD3" transform="translate(281,189)"/>
<path d="M0 0 C0.33 0.99 0.66 1.98 1 3 C-0.21484375 4.82421875 -0.21484375 4.82421875 -1.9375 6.6875 C-2.50339844 7.31011719 -3.06929687 7.93273437 -3.65234375 8.57421875 C-4.09707031 9.04472656 -4.54179687 9.51523438 -5 10 C-8 8.5 -8 8.5 -11 7 C-5.25 4 -5.25 4 -3 4 C-2.67 3.01 -2.34 2.02 -2 1 C-1.34 0.67 -0.68 0.34 0 0 Z " fill="#87A078" transform="translate(170,232)"/>
<path d="M0 0 C2.50740841 2.10830534 3.87271731 3.28092125 4.45410156 6.56542969 C4.4331543 7.50805664 4.41220703 8.45068359 4.390625 9.421875 C4.37773437 10.44667969 4.36484375 11.47148437 4.3515625 12.52734375 C4.31804687 13.59082031 4.28453125 14.65429688 4.25 15.75 C4.23195313 16.82894531 4.21390625 17.90789062 4.1953125 19.01953125 C4.14821415 21.68058788 4.082456 24.33984254 4 27 C3.67 27 3.34 27 3 27 C2.95101563 25.80503906 2.90203125 24.61007813 2.8515625 23.37890625 C2.31943461 11.568195 2.31943461 11.568195 0 0 Z " fill="#9CB08F" transform="translate(321,191)"/>
<path d="M0 0 C4.0042343 3.49087093 5.62671065 5.64951939 6 11 C4.68 11.99 3.36 12.98 2 14 C1.34 13.67 0.68 13.34 0 13 C0.33 12.443125 0.66 11.88625 1 11.3125 C2.16594721 8.61624708 2.29134297 6.91342967 2 4 C1.08431094 1.74867483 1.08431094 1.74867483 0 0 Z " fill="#D1E2C9" transform="translate(173,159)"/>
<path d="M0 0 C1.32 0.33 2.64 0.66 4 1 C3.01 1.33 2.02 1.66 1 2 C0.31513275 3.32407669 -0.34870203 4.65909241 -1 6 C-2.9375 8.25 -2.9375 8.25 -5 10 C-5.99 10 -6.98 10 -8 10 C-8 9.34 -8 8.68 -8 8 C-6.52295788 6.74772516 -5.04172601 5.49833478 -3.5078125 4.31640625 C-1.73237056 2.88235909 -1.73237056 2.88235909 0 0 Z " fill="#DCE7D2" transform="translate(120,149)"/>
<path d="M0 0 C0.33 0.66 0.66 1.32 1 2 C0.04060332 3.69036558 -0.96642853 5.35394174 -2 7 C-2.309375 7.845625 -2.61875 8.69125 -2.9375 9.5625 C-4.16428317 12.37688492 -5.73473484 13.96126136 -8 16 C-6.36866728 10.79361899 -4.7336592 5.75418991 -2 1 C-1.34 0.67 -0.68 0.34 0 0 Z " fill="#D8E6D0" transform="translate(111,159)"/>
<path d="M0 0 C0.66 0.33 1.32 0.66 2 1 C-1.75264754 5.96387672 -5.45890328 10.73412126 -10 15 C-10.66 14.67 -11.32 14.34 -12 14 C-11.30132812 13.24074219 -10.60265625 12.48148437 -9.8828125 11.69921875 C-8.96343578 10.69540947 -8.04417079 9.69149785 -7.125 8.6875 C-6.66480469 8.18798828 -6.20460938 7.68847656 -5.73046875 7.17382812 C-3.61393392 4.85790957 -1.74473617 2.61710426 0 0 Z " fill="#7C956B" transform="translate(380,252)"/>
<path d="M0 0 C0 3.50376121 -1.21155934 5.26691293 -2.9765625 8.21484375 C-4.22642551 10.39494831 -5.14219553 12.6410377 -6 15 C-6.33 15 -6.66 15 -7 15 C-7.29296875 8.9453125 -7.29296875 8.9453125 -7 7 C-6.01 6.34 -5.02 5.68 -4 5 C-3.835 4.319375 -3.67 3.63875 -3.5 2.9375 C-3.335 2.298125 -3.17 1.65875 -3 1 C-2.01 0.67 -1.02 0.34 0 0 Z " fill="#90A783" transform="translate(191,158)"/>
<path d="M0 0 C0.99 0 1.98 0 3 0 C1 5 1 5 0 7.25 C-1.39401885 11.08355184 -2.18273336 15.0093044 -3 19 C-4.49314068 15.04815434 -3.53513125 11.84129199 -2.625 7.8125 C-2.34914063 6.56082031 -2.07328125 5.30914062 -1.7890625 4.01953125 C-1 1 -1 1 0 0 Z " fill="#9AAF8F" transform="translate(105,163)"/>
<path d="M0 0 C4.95 0 9.9 0 15 0 C15 0.33 15 0.66 15 1 C14.25234375 1.06058594 13.5046875 1.12117187 12.734375 1.18359375 C11.74953125 1.26738281 10.7646875 1.35117188 9.75 1.4375 C8.28820312 1.55931641 8.28820312 1.55931641 6.796875 1.68359375 C4.41513354 1.95303657 2.26385851 2.21953736 0 3 C-1.1500831 4.96672915 -1.1500831 4.96672915 -2 7 C-2.99 7.495 -2.99 7.495 -4 8 C-2.66666667 5.33333333 -1.33333333 2.66666667 0 0 Z " fill="#DCEAD4" transform="translate(133,166)"/>
<path d="M0 0 C3 1 3 1 4.203125 3.1796875 C4.54859375 4.06914062 4.8940625 4.95859375 5.25 5.875 C5.60578125 6.75929687 5.9615625 7.64359375 6.328125 8.5546875 C7 11 7 11 6 14 C5.67 12.68 5.34 11.36 5 10 C4.34 10 3.68 10 3 10 C0 3.375 0 3.375 0 0 Z " fill="#D1DFC7" transform="translate(185,215)"/>
<path d="M0 0 C-0.66 0.66 -1.32 1.32 -2 2 C-2.99 2 -3.98 2 -5 2 C-5.33 2.99 -5.66 3.98 -6 5 C-7.98 5.33 -9.96 5.66 -12 6 C-12 5.01 -12 4.02 -12 3 C-10.68 3 -9.36 3 -8 3 C-8 2.34 -8 1.68 -8 1 C-5.07175348 0.02391783 -3.04386724 -0.08226668 0 0 Z " fill="#D8E5CD" transform="translate(170,174)"/>
<path d="M0 0 C0.57363281 0.22171875 1.14726562 0.4434375 1.73828125 0.671875 C-2.431705 4.43503333 -6.01181209 6.67691047 -11.26171875 8.671875 C-10.12994634 5.27655777 -9.22859862 4.54637316 -6.44921875 2.421875 C-5.76214844 1.88046875 -5.07507813 1.3390625 -4.3671875 0.78125 C-2.26171875 -0.328125 -2.26171875 -0.328125 0 0 Z " fill="#BCCEB2" transform="translate(203.26171875,149.328125)"/>
<path d="M0 0 C0.33 0.66 0.66 1.32 1 2 C0.07421875 4.34765625 0.07421875 4.34765625 -1.3125 7.0625 C-1.98732422 8.41021484 -1.98732422 8.41021484 -2.67578125 9.78515625 C-4 12 -4 12 -6 13 C-6 11.35 -6 9.7 -6 8 C-5.34 7.67 -4.68 7.34 -4 7 C-3.31867549 5.33927151 -2.65257873 3.672233 -2 2 C-1.34 1.34 -0.68 0.68 0 0 Z " fill="#C2D4BA" transform="translate(263,213)"/>
<path d="M0 0 C0.6875 1.6875 0.6875 1.6875 1 4 C-0.64076492 7.44560634 -1.78512442 8.85674962 -5 11 C-7.1875 10.625 -7.1875 10.625 -9 10 C-8.071875 9.87625 -8.071875 9.87625 -7.125 9.75 C-4.87315408 9.20747626 -4.87315408 9.20747626 -3.9375 7.25 C-3.4734375 6.13625 -3.4734375 6.13625 -3 5 C-2.01120795 3.32665961 -1.01351664 1.65848177 0 0 Z " fill="#C8D8C0" transform="translate(238,209)"/>
<path d="M0 0 C-0.57468925 3.87915244 -2.37884447 6.14756605 -5 9 C-5.99 9.33 -6.98 9.66 -8 10 C-7.61508669 5.50934475 -5.14531178 0 0 0 Z " fill="#79916B" transform="translate(238,209)"/>
<path d="M0 0 C1.77007714 -0.08114106 3.54122098 -0.13925505 5.3125 -0.1875 C6.29863281 -0.22230469 7.28476562 -0.25710937 8.30078125 -0.29296875 C11 0 11 0 14 3 C7.07 2.505 7.07 2.505 0 2 C0 1.34 0 0.68 0 0 Z " fill="#BFD1B3" transform="translate(285,186)"/>
<path d="M0 0 C0.6875 1.6875 0.6875 1.6875 1 4 C-0.25 6.3125 -0.25 6.3125 -2 9 C-3.07214008 11.30774545 -4.03073186 13.64606309 -5 16 C-6.09346477 13.22681526 -6.03742841 12.10756865 -5.0390625 9.23828125 C-4.57242188 8.27277344 -4.10578125 7.30726563 -3.625 6.3125 C-3.16351563 5.33925781 -2.70203125 4.36601562 -2.2265625 3.36328125 C-1 1 -1 1 0 0 Z " fill="#D6E5CF" transform="translate(189,163)"/>
<path d="M0 0 C3.24208567 0.35049575 4.61527704 0.56221181 6.8125 3.0625 C7.204375 3.701875 7.59625 4.34125 8 5 C5.03 5 2.06 5 -1 5 C-0.67 3.35 -0.34 1.7 0 0 Z " fill="#C8DBBD" transform="translate(159,206)"/>
<path d="M0 0 C0.66 0.33 1.32 0.66 2 1 C-3.36585366 6 -3.36585366 6 -6.25 6 C-8 5 -8 5 -10 2 C-9.04287109 1.90912109 -9.04287109 1.90912109 -8.06640625 1.81640625 C-6.82697266 1.69072266 -6.82697266 1.69072266 -5.5625 1.5625 C-4.73878906 1.48128906 -3.91507812 1.40007812 -3.06640625 1.31640625 C-1.01337975 1.21069185 -1.01337975 1.21069185 0 0 Z " fill="#D6E5CD" transform="translate(349,282)"/>
<path d="M0 0 C4.875 1.875 4.875 1.875 6 3 C7.84891946 3.23363881 9.70488031 3.41303635 11.5625 3.5625 C13.08037109 3.68818359 13.08037109 3.68818359 14.62890625 3.81640625 C15.80259766 3.90728516 15.80259766 3.90728516 17 4 C17 4.33 17 4.66 17 5 C14.73078464 5.13489391 12.4592933 5.23193995 10.1875 5.3125 C8.29064453 5.39951172 8.29064453 5.39951172 6.35546875 5.48828125 C3 5 3 5 1.05078125 2.48046875 C0.53064453 1.25263672 0.53064453 1.25263672 0 0 Z " fill="#C6D5BD" transform="translate(212,216)"/>
<path d="M0 0 C-3.60957611 3.2910841 -6.12637153 4.54663921 -11 5 C-10 2 -10 2 -7.1875 0.25 C-4.03596914 -0.98589446 -3.03070628 -1.28222189 0 0 Z " fill="#8BA07D" transform="translate(175,174)"/>
<path d="M0 0 C1.74965358 -0.05429959 3.49979787 -0.09292823 5.25 -0.125 C6.22453125 -0.14820313 7.1990625 -0.17140625 8.203125 -0.1953125 C11.0196498 0.00137219 12.60949036 0.55431084 15 2 C10.01937884 3.66020705 5.04327586 2.06978579 0 1 C0 0.67 0 0.34 0 0 Z " fill="#7C946F" transform="translate(218,168)"/>
<path d="M0 0 C-1.62339805 1.70884005 -3.29319053 3.37446717 -5 5 C-5.66 5 -6.32 5 -7 5 C-7.33 5.99 -7.66 6.98 -8 8 C-9.24546405 5.50907189 -8.7767578 4.58919267 -8 2 C-7.34 2 -6.68 2 -6 2 C-6 1.34 -6 0.68 -6 0 C-2.25 -1.125 -2.25 -1.125 0 0 Z " fill="#91A782" transform="translate(119,152)"/>
<path d="M0 0 C0.33 1.32 0.66 2.64 1 4 C-3.95 4 -8.9 4 -14 4 C-14 3.67 -14 3.34 -14 3 C-12.60974609 2.80083984 -12.60974609 2.80083984 -11.19140625 2.59765625 C-9.99386719 2.42105469 -8.79632813 2.24445313 -7.5625 2.0625 C-6.36753906 1.88847656 -5.17257812 1.71445313 -3.94140625 1.53515625 C-1.12044324 1.31014787 -1.12044324 1.31014787 0 0 Z " fill="#6E8860" transform="translate(322,244)"/>
<path d="M0 0 C0.99 0.495 0.99 0.495 2 1 C2 1.66 2 2.32 2 3 C2.99 3.33 3.98 3.66 5 4 C5.33 5.98 5.66 7.96 6 10 C2.46413986 6.82679218 0.41421969 4.83256305 0 0 Z " fill="#BBCDAE" transform="translate(105,220)"/>
<path d="M0 0 C0.66 2.64 1.32 5.28 2 8 C1.34 8 0.68 8 0 8 C-1.98 4.535 -1.98 4.535 -4 1 C-2 0 -2 0 0 0 Z " fill="#92A683" transform="translate(302,186)"/>
<path d="M0 0 C1.98 0 3.96 0 6 0 C5.67 1.65 5.34 3.3 5 5 C5.99 5.66 6.98 6.32 8 7 C7.67 7.99 7.34 8.98 7 10 C7 9.34 7 8.68 7 8 C6.401875 7.79375 5.80375 7.5875 5.1875 7.375 C2.18981233 5.49073918 1.38638224 3.18867916 0 0 Z " fill="#D6E7CD" transform="translate(313,179)"/>
<path d="M0 0 C0 0.33 0 0.66 0 1 C-1.91345327 1.53251766 -3.8309295 2.05059483 -5.75 2.5625 C-6.81734375 2.85253906 -7.8846875 3.14257812 -8.984375 3.44140625 C-11.84335927 3.97098494 -13.31597383 3.98370862 -16 3 C-10.28264895 0.54970669 -6.20970773 -0.33266291 0 0 Z " fill="#D1E4CA" transform="translate(140,145)"/>
<path d="M0 0 C0.99 0.33 1.98 0.66 3 1 C2.34 1 1.68 1 1 1 C1 1.66 1 2.32 1 3 C-5.28571429 5.42857143 -5.28571429 5.42857143 -9 4 C-7 2 -7 2 -3.375 1.875 C-1.704375 1.936875 -1.704375 1.936875 0 2 C0 1.34 0 0.68 0 0 Z " fill="#E1EED9" transform="translate(243,236)"/>
<path d="M0 0 C0.33 0 0.66 0 1 0 C2.5912689 4.873261 3.21192221 8.80790596 3 14 C-0.26566506 9.10150241 -0.09311493 5.68001091 0 0 Z " fill="#D8E4D0" transform="translate(101,201)"/>
<path d="M0 0 C2.875 0.625 2.875 0.625 6 2 C7.375 5.125 7.375 5.125 8 8 C6.85073734 7.04578192 5.70569459 6.08647955 4.5625 5.125 C3.92441406 4.59132813 3.28632813 4.05765625 2.62890625 3.5078125 C1 2 1 2 0 0 Z " fill="#DBE7D2" transform="translate(331,276)"/>
<path d="M0 0 C0.99 0 1.98 0 3 0 C1.55746343 3.36591866 -0.33264727 5.51047079 -3 8 C-3 6.68 -3 5.36 -3 4 C-2.34 4 -1.68 4 -1 4 C-0.67 2.68 -0.34 1.36 0 0 Z " fill="#E4EFDB" transform="translate(172,225)"/>
<path d="M0 0 C1.65 0.99 3.3 1.98 5 3 C4.67 4.32 4.34 5.64 4 7 C0 2.25 0 2.25 0 0 Z " fill="#D8E3CE" transform="translate(358,187)"/>
</svg>
